<?xml version="1.0" standalone="no"?>
<!DOCTYPE svg PUBLIC "-//W3C//DTD SVG 20010904//EN"
 "http://www.w3.org/TR/2001/REC-SVG-20010904/DTD/svg10.dtd">
<svg version="1.0" xmlns="http://www.w3.org/2000/svg"
 width="512.000000pt" height="512.000000pt" viewBox="0 0 512.000000 512.000000"
 preserveAspectRatio="xMidYMid meet">

<g transform="translate(0.000000,512.000000) scale(0.100000,-0.100000)"
fill="none" stroke="none">
<path d="M1325 4949 c-27 -6 -86 -28 -131 -49 -152 -73 -274 -232 -303 -394
-7 -39 -11 -323 -11 -817 0 -723 -1 -758 -18 -763 -50 -16 -85 -78 -281 -502
-109 -236 -205 -452 -214 -479 -46 -137 -47 -165 -47 -996 l0 -789 80 0 79 0
3 818 3 817 26 75 c14 41 102 240 195 442 l169 368 5 -628 c4 -484 8 -638 19
-677 13 -50 13 -50 -24 -113 -26 -45 -34 -67 -26 -75 20 -24 121 -71 130 -62
5 6 113 192 241 415 128 223 243 416 254 428 31 35 70 52 118 52 94 0 162 -72
155 -165 -3 -44 -27 -91 -195 -381 -106 -183 -192 -342 -192 -354 0 -12 43
-93 95 -181 150 -249 139 -210 143 -516 l3 -263 80 0 79 0 0 243 c0 309 -15
377 -118 535 l-14 22 243 0 244 0 0 -77 c1 -62 6 -89 26 -133 26 -54 344 -609
357 -622 4 -3 37 11 74 33 65 38 67 41 54 62 -8 12 -89 151 -180 309 -105 183
-168 302 -172 327 -12 78 51 160 135 177 38 8 110 -17 138 -49 11 -12 59 -91
108 -175 48 -84 95 -157 105 -162 29 -16 66 -12 91 9 l24 19 5 810 c5 799 5
811 26 838 39 53 71 69 134 69 63 0 95 -16 134 -69 21 -27 21 -40 26 -718 l5
-690 24 -19 c30 -24 72 -24 102 0 24 19 24 23 29 229 5 230 7 236 74 286 39
29 133 29 172 0 67 -50 69 -56 74 -286 5 -206 5 -210 29 -229 30 -24 72 -24
102 0 23 18 24 25 29 189 5 186 9 198 74 246 39 29 133 29 172 0 65 -48 69
-60 74 -246 5 -164 6 -171 29 -189 30 -24 72 -24 102 0 22 18 24 28 29 149 4
111 8 135 26 158 39 53 71 69 134 69 63 0 95 -16 134 -69 20 -27 21 -40 24
-537 l3 -509 80 0 80 0 -3 523 -3 522 -34 63 c-56 102 -140 158 -256 169 -70
6 -147 -13 -199 -49 l-28 -21 -32 35 c-104 118 -261 150 -392 79 l-57 -31 -41
45 c-23 24 -67 56 -99 70 l-57 26 -2 1462 -3 1462 -26 66 c-37 94 -70 148
-133 212 -62 63 -119 99 -215 136 l-66 26 -890 2 c-531 0 -910 -3 -940 -8z
m1877 -186 c93 -44 151 -100 196 -191 l37 -76 3 -1453 2 -1453 -36 -15 c-20
-8 -38 -15 -40 -15 -1 0 -4 172 -6 383 l-3 382 -34 63 c-38 69 -80 110 -151
144 -66 32 -196 31 -265 -2 -63 -31 -124 -91 -155 -155 l-25 -50 -3 -602 -3
-603 -43 0 c-25 0 -48 6 -55 14 -17 20 -99 53 -152 61 -57 9 -159 -16 -211
-50 l-38 -25 -341 0 c-291 0 -340 2 -336 14 3 8 82 147 176 309 95 165 175
315 182 341 36 143 -34 295 -166 364 -72 37 -179 42 -258 12 -94 -35 -135 -86
-292 -360 l-140 -244 -3 289 c-1 160 -1 821 0 1470 l3 1180 32 67 c17 37 50
87 72 111 44 48 135 101 197 116 23 5 406 9 914 8 l875 -2 67 -32z"/>
<path d="M1600 4560 l0 -80 80 0 80 0 0 80 0 80 -80 0 -80 0 0 -80z"/>
<path d="M1920 4560 l0 -80 320 0 320 0 0 80 0 80 -320 0 -320 0 0 -80z"/>
<path d="M2095 3986 c-218 -43 -405 -168 -525 -353 -89 -136 -125 -259 -125
-433 0 -174 36 -297 124 -432 243 -371 737 -478 1104 -238 427 278 490 875
131 1234 -103 104 -222 171 -374 212 -78 22 -250 26 -335 10z m279 -161 c367
-78 594 -474 473 -824 -36 -102 -81 -174 -157 -251 -254 -253 -647 -253 -901
1 -251 249 -251 648 0 900 156 155 371 219 585 174z"/>
<path d="M2160 3640 c0 -30 -4 -40 -16 -40 -77 0 -189 -88 -212 -166 -28 -94
-8 -169 63 -239 63 -64 100 -75 244 -75 105 0 113 -1 136 -25 16 -15 25 -36
25 -55 0 -19 -9 -40 -25 -55 -23 -24 -31 -25 -135 -25 -104 0 -112 1 -135 25
-14 13 -25 31 -25 40 0 12 -15 15 -80 15 -67 0 -80 -3 -80 -16 0 -100 124
-224 224 -224 12 0 16 -10 16 -40 l0 -40 80 0 80 0 0 40 c0 32 4 40 18 40 48
0 113 34 155 80 93 103 90 228 -8 325 -63 64 -100 75 -244 75 -105 0 -113 1
-136 25 -33 32 -33 78 0 110 23 24 31 25 135 25 104 0 112 -1 135 -25 14 -13
25 -31 25 -40 0 -12 15 -15 80 -15 67 0 80 3 80 16 0 76 -80 182 -157 208 -26
9 -55 16 -65 16 -14 0 -18 8 -18 40 l0 40 -80 0 -80 0 0 -40z"/>
<path d="M2000 1747 c-49 -16 -133 -102 -148 -153 -28 -94 -8 -169 63 -239 69
-69 94 -75 327 -75 234 0 266 8 331 80 90 100 90 220 0 320 -66 73 -96 80
-337 79 -116 -1 -216 -6 -236 -12z m455 -172 c16 -15 25 -36 25 -55 0 -19 -9
-40 -25 -55 -24 -25 -26 -25 -215 -25 -189 0 -191 0 -215 25 -16 15 -25 36
-25 55 0 19 9 40 25 55 24 25 26 25 215 25 189 0 191 0 215 -25z"/>
<path d="M238 3953 c-70 -70 -128 -132 -127 -138 1 -5 26 -32 55 -59 l55 -50
49 49 50 49 0 -462 0 -462 80 0 80 0 0 462 0 462 50 -49 49 -49 55 50 c29 27
54 54 55 59 1 6 -57 68 -127 138 -113 112 -133 127 -162 127 -29 0 -49 -15
-162 -127z"/>
<path d="M3918 3953 c-70 -70 -128 -132 -127 -138 1 -5 26 -32 55 -59 l55 -50
49 49 50 49 0 -462 0 -462 80 0 80 0 0 462 0 462 50 -49 49 -49 55 50 c29 27
54 54 55 59 1 6 -57 68 -127 138 -113 112 -133 127 -162 127 -29 0 -49 -15
-162 -127z"/>
<path d="M320 2640 l0 -80 80 0 80 0 0 80 0 80 -80 0 -80 0 0 -80z"/>
<path d="M4000 2640 l0 -80 80 0 80 0 0 80 0 80 -80 0 -80 0 0 -80z"/>
<path d="M4000 2320 l0 -80 80 0 80 0 0 80 0 80 -80 0 -80 0 0 -80z"/>
</g>
</svg>
